<svg xmlns="http://www.w3.org/2000/svg" xmlns:xlink="http://www.w3.org/1999/xlink" width="1920" zoomAndPan="magnify" viewBox="0 0 1440 809.999993" height="1080" preserveAspectRatio="xMidYMid meet" version="1.0"><rect x="-144" width="1728" fill="#ffffff" y="-80.999999" height="971.999992" fill-opacity="1"/><rect x="-144" width="1728" fill="#ffffff" y="-80.999999" height="971.999992" fill-opacity="1"/><path fill="#647fbc" d="M 494.515625 504.140625 C 495.484375 504.140625 496.445312 504.234375 497.398438 504.421875 C 498.351562 504.609375 499.273438 504.890625 500.171875 505.261719 C 501.070312 505.632812 501.921875 506.085938 502.730469 506.625 C 503.535156 507.164062 504.285156 507.777344 504.96875 508.464844 C 505.65625 509.148438 506.269531 509.894531 506.808594 510.703125 C 507.347656 511.511719 507.804688 512.363281 508.175781 513.257812 C 508.546875 514.15625 508.828125 515.078125 509.019531 516.03125 C 509.207031 516.984375 509.300781 517.945312 509.300781 518.917969 L 509.300781 720.484375 C 509.300781 721.457031 509.207031 722.417969 509.019531 723.371094 C 508.828125 724.324219 508.546875 725.246094 508.175781 726.144531 C 507.804688 727.039062 507.347656 727.890625 506.808594 728.699219 C 506.269531 729.507812 505.65625 730.253906 504.96875 730.9375 C 504.285156 731.625 503.535156 732.238281 502.730469 732.777344 C 501.921875 733.316406 501.070312 733.769531 500.171875 734.140625 C 499.273438 734.511719 498.351562 734.792969 497.398438 734.980469 C 496.445312 735.167969 495.484375 735.261719 494.515625 735.261719 L 396.835938 735.261719 C 395.867188 735.261719 394.90625 735.167969 393.953125 734.980469 C 393 734.789062 392.078125 734.507812 391.179688 734.136719 C 390.285156 733.765625 389.429688 733.3125 388.625 732.773438 C 387.816406 732.234375 387.070312 731.621094 386.382812 730.933594 C 385.699219 730.25 385.085938 729.503906 384.542969 728.695312 C 384.003906 727.890625 383.550781 727.039062 383.175781 726.140625 C 382.804688 725.246094 382.523438 724.320312 382.335938 723.371094 C 382.144531 722.417969 382.050781 721.457031 382.046875 720.484375 L 382.046875 518.917969 C 382.050781 517.945312 382.144531 516.984375 382.335938 516.03125 C 382.523438 515.082031 382.804688 514.15625 383.175781 513.261719 C 383.550781 512.363281 384.003906 511.511719 384.542969 510.707031 C 385.085938 509.898438 385.699219 509.152344 386.382812 508.46875 C 387.070312 507.78125 387.816406 507.167969 388.625 506.628906 C 389.429688 506.089844 390.285156 505.636719 391.179688 505.265625 C 392.078125 504.894531 393 504.613281 393.953125 504.421875 C 394.90625 504.234375 395.867188 504.140625 396.835938 504.140625 Z M 590.773438 354.074219 C 589.800781 354.074219 588.839844 354.167969 587.890625 354.359375 C 586.9375 354.546875 586.015625 354.828125 585.117188 355.199219 C 584.222656 355.570312 583.371094 356.027344 582.5625 356.566406 C 581.757812 357.105469 581.011719 357.71875 580.324219 358.402344 C 579.636719 359.089844 579.023438 359.835938 578.484375 360.640625 C 577.945312 361.449219 577.492188 362.300781 577.121094 363.195312 C 576.75 364.09375 576.46875 365.015625 576.28125 365.96875 C 576.089844 366.921875 575.996094 367.882812 575.996094 368.851562 L 575.996094 720.484375 C 575.996094 721.457031 576.089844 722.417969 576.28125 723.367188 C 576.46875 724.320312 576.75 725.246094 577.121094 726.140625 C 577.492188 727.039062 577.945312 727.890625 578.484375 728.695312 C 579.023438 729.503906 579.636719 730.25 580.324219 730.933594 C 581.011719 731.621094 581.757812 732.234375 582.5625 732.773438 C 583.371094 733.3125 584.222656 733.765625 585.117188 734.136719 C 586.015625 734.507812 586.9375 734.789062 587.890625 734.980469 C 588.839844 735.167969 589.800781 735.261719 590.773438 735.261719 L 688.414062 735.261719 C 689.386719 735.261719 690.34375 735.164062 691.296875 734.976562 C 692.246094 734.785156 693.167969 734.503906 694.0625 734.132812 C 694.957031 733.757812 695.808594 733.304688 696.613281 732.765625 C 697.417969 732.226562 698.164062 731.613281 698.847656 730.925781 C 699.535156 730.242188 700.144531 729.496094 700.683594 728.6875 C 701.222656 727.882812 701.675781 727.03125 702.046875 726.136719 C 702.417969 725.238281 702.695312 724.316406 702.886719 723.367188 C 703.074219 722.414062 703.167969 721.457031 703.167969 720.484375 L 703.167969 368.851562 C 703.167969 367.882812 703.074219 366.917969 702.886719 365.96875 C 702.695312 365.015625 702.414062 364.089844 702.042969 363.195312 C 701.671875 362.296875 701.214844 361.445312 700.675781 360.636719 C 700.136719 359.832031 699.523438 359.085938 698.835938 358.398438 C 698.152344 357.714844 697.402344 357.101562 696.597656 356.5625 C 695.789062 356.023438 694.9375 355.566406 694.039062 355.195312 C 693.140625 354.824219 692.21875 354.546875 691.265625 354.355469 C 690.3125 354.167969 689.351562 354.074219 688.382812 354.074219 Z M 784.683594 425.953125 C 783.714844 425.953125 782.753906 426.046875 781.800781 426.234375 C 780.847656 426.425781 779.925781 426.703125 779.027344 427.074219 C 778.128906 427.445312 777.277344 427.902344 776.46875 428.441406 C 775.664062 428.980469 774.917969 429.59375 774.230469 430.277344 C 773.542969 430.964844 772.929688 431.710938 772.390625 432.519531 C 771.851562 433.324219 771.394531 434.175781 771.023438 435.074219 C 770.652344 435.96875 770.371094 436.894531 770.183594 437.847656 C 769.992188 438.796875 769.898438 439.761719 769.898438 440.730469 L 769.898438 720.484375 C 769.898438 721.457031 769.992188 722.417969 770.179688 723.371094 C 770.371094 724.324219 770.652344 725.246094 771.023438 726.144531 C 771.394531 727.039062 771.851562 727.890625 772.390625 728.699219 C 772.929688 729.507812 773.542969 730.253906 774.230469 730.9375 C 774.914062 731.625 775.664062 732.238281 776.46875 732.777344 C 777.277344 733.316406 778.128906 733.769531 779.027344 734.140625 C 779.925781 734.511719 780.847656 734.792969 781.800781 734.980469 C 782.753906 735.167969 783.714844 735.261719 784.683594 735.261719 L 882.292969 735.261719 C 883.265625 735.261719 884.226562 735.167969 885.175781 734.980469 C 886.128906 734.789062 887.050781 734.507812 887.949219 734.136719 C 888.84375 733.765625 889.695312 733.3125 890.503906 732.773438 C 891.308594 732.234375 892.058594 731.621094 892.742188 730.933594 C 893.429688 730.25 894.042969 729.503906 894.582031 728.695312 C 895.121094 727.890625 895.574219 727.039062 895.945312 726.140625 C 896.316406 725.246094 896.597656 724.320312 896.785156 723.367188 C 896.976562 722.417969 897.070312 721.457031 897.070312 720.484375 L 897.070312 440.730469 C 897.070312 439.761719 896.976562 438.800781 896.785156 437.847656 C 896.597656 436.894531 896.316406 435.972656 895.945312 435.074219 C 895.574219 434.179688 895.121094 433.328125 894.582031 432.519531 C 894.042969 431.714844 893.429688 430.96875 892.742188 430.28125 C 892.054688 429.597656 891.308594 428.984375 890.503906 428.445312 C 889.695312 427.90625 888.84375 427.449219 887.949219 427.078125 C 887.050781 426.707031 886.128906 426.425781 885.175781 426.238281 C 884.226562 426.046875 883.265625 425.953125 882.292969 425.953125 Z M 978.550781 259.054688 C 977.582031 259.054688 976.621094 259.148438 975.671875 259.339844 C 974.71875 259.527344 973.796875 259.808594 972.902344 260.179688 C 972.003906 260.554688 971.15625 261.007812 970.347656 261.546875 C 969.542969 262.085938 968.796875 262.699219 968.113281 263.386719 C 967.425781 264.070312 966.8125 264.816406 966.273438 265.625 C 965.738281 266.429688 965.28125 267.28125 964.910156 268.175781 C 964.539062 269.074219 964.261719 269.996094 964.070312 270.949219 C 963.882812 271.898438 963.789062 272.859375 963.789062 273.828125 L 963.789062 720.484375 C 963.789062 721.457031 963.882812 722.417969 964.070312 723.371094 C 964.261719 724.324219 964.542969 725.246094 964.914062 726.144531 C 965.285156 727.039062 965.742188 727.890625 966.28125 728.699219 C 966.820312 729.507812 967.433594 730.253906 968.121094 730.9375 C 968.804688 731.625 969.554688 732.238281 970.359375 732.777344 C 971.167969 733.316406 972.019531 733.769531 972.917969 734.140625 C 973.8125 734.511719 974.738281 734.792969 975.691406 734.980469 C 976.644531 735.167969 977.605469 735.261719 978.574219 735.261719 L 1076.21875 735.261719 C 1077.1875 735.261719 1078.148438 735.167969 1079.101562 734.980469 C 1080.054688 734.789062 1080.976562 734.507812 1081.875 734.136719 C 1082.773438 733.765625 1083.625 733.3125 1084.429688 732.773438 C 1085.238281 732.234375 1085.984375 731.621094 1086.671875 730.933594 C 1087.359375 730.25 1087.96875 729.503906 1088.511719 728.695312 C 1089.050781 727.890625 1089.503906 727.039062 1089.878906 726.140625 C 1090.25 725.246094 1090.53125 724.320312 1090.71875 723.371094 C 1090.910156 722.417969 1091.003906 721.457031 1091.007812 720.484375 L 1091.007812 273.828125 C 1091.003906 272.859375 1090.910156 271.898438 1090.71875 270.945312 C 1090.53125 269.996094 1090.25 269.070312 1089.878906 268.175781 C 1089.503906 267.277344 1089.050781 266.425781 1088.511719 265.621094 C 1087.96875 264.8125 1087.359375 264.066406 1086.671875 263.378906 C 1085.984375 262.695312 1085.238281 262.082031 1084.429688 261.542969 C 1083.625 261.003906 1082.773438 260.546875 1081.875 260.175781 C 1080.976562 259.804688 1080.054688 259.527344 1079.101562 259.335938 C 1078.148438 259.148438 1077.1875 259.054688 1076.21875 259.054688 Z M 390.828125 392.601562 C 389.96875 391.890625 389.089844 391.207031 388.191406 390.546875 C 387.292969 389.890625 386.375 389.257812 385.4375 388.65625 C 384.5 388.054688 383.546875 387.476562 382.574219 386.933594 C 381.605469 386.386719 380.617188 385.871094 379.617188 385.382812 C 378.613281 384.894531 377.597656 384.4375 376.566406 384.011719 C 375.539062 383.585938 374.496094 383.191406 373.445312 382.828125 C 372.390625 382.464844 371.328125 382.132812 370.253906 381.832031 C 369.179688 381.53125 368.101562 381.265625 367.011719 381.027344 C 365.921875 380.792969 364.828125 380.589844 363.726562 380.421875 C 362.625 380.25 361.519531 380.113281 360.410156 380.011719 C 359.300781 379.90625 358.1875 379.835938 357.074219 379.800781 C 355.960938 379.761719 354.847656 379.757812 353.734375 379.789062 C 352.621094 379.820312 351.507812 379.882812 350.398438 379.976562 C 349.289062 380.074219 348.179688 380.203125 347.078125 380.367188 C 345.976562 380.527344 344.878906 380.722656 343.789062 380.953125 C 342.699219 381.179688 341.617188 381.441406 340.542969 381.734375 C 339.464844 382.027344 338.402344 382.351562 337.34375 382.707031 C 336.289062 383.066406 335.246094 383.453125 334.214844 383.871094 C 333.179688 384.292969 332.164062 384.742188 331.15625 385.222656 C 330.152344 385.703125 329.160156 386.210938 328.1875 386.75 C 327.210938 387.292969 326.253906 387.859375 325.3125 388.457031 C 324.371094 389.054688 323.449219 389.679688 322.546875 390.332031 C 321.644531 390.984375 320.761719 391.660156 319.898438 392.367188 C 319.035156 393.070312 318.195312 393.800781 317.375 394.558594 C 316.554688 395.3125 315.757812 396.09375 314.988281 396.894531 C 314.214844 397.699219 313.46875 398.523438 312.746094 399.371094 C 312.019531 400.21875 311.324219 401.085938 310.652344 401.976562 C 309.984375 402.867188 309.339844 403.777344 308.722656 404.703125 C 308.105469 405.632812 307.515625 406.578125 306.957031 407.542969 C 306.398438 408.503906 305.867188 409.484375 305.367188 410.480469 C 304.863281 411.472656 304.394531 412.484375 303.953125 413.507812 C 303.511719 414.53125 303.101562 415.566406 302.722656 416.613281 C 302.34375 417.660156 301.996094 418.71875 301.683594 419.789062 C 301.367188 420.855469 301.082031 421.933594 300.832031 423.019531 C 300.582031 424.105469 300.363281 425.199219 300.179688 426.296875 C 299.992188 427.394531 299.839844 428.5 299.71875 429.605469 C 299.601562 430.714844 299.515625 431.824219 299.460938 432.9375 C 299.410156 434.050781 299.390625 435.164062 299.402344 436.277344 C 299.417969 437.390625 299.464844 438.503906 299.542969 439.617188 C 299.625 440.726562 299.738281 441.835938 299.886719 442.941406 C 300.03125 444.042969 300.210938 445.144531 300.421875 446.238281 C 300.636719 447.332031 300.882812 448.417969 301.160156 449.496094 C 301.4375 450.574219 301.746094 451.644531 302.085938 452.707031 C 302.429688 453.765625 302.800781 454.816406 303.207031 455.855469 C 303.613281 456.894531 304.046875 457.917969 304.511719 458.929688 C 304.980469 459.941406 305.472656 460.941406 306 461.921875 C 306.527344 462.90625 307.082031 463.871094 307.664062 464.820312 C 308.246094 465.769531 308.859375 466.699219 309.496094 467.613281 C 310.136719 468.523438 310.804688 469.417969 311.496094 470.289062 C 312.1875 471.164062 312.90625 472.015625 313.648438 472.84375 C 314.394531 473.675781 315.160156 474.480469 315.953125 475.265625 C 316.746094 476.050781 317.558594 476.808594 318.398438 477.542969 C 319.234375 478.277344 320.09375 478.988281 320.972656 479.671875 C 321.851562 480.355469 322.753906 481.011719 323.671875 481.640625 C 324.589844 482.269531 325.527344 482.871094 326.484375 483.445312 C 327.4375 484.019531 328.410156 484.5625 329.398438 485.078125 C 330.386719 485.59375 331.390625 486.082031 332.40625 486.535156 C 333.421875 486.992188 334.453125 487.414062 335.496094 487.808594 C 336.535156 488.203125 337.589844 488.566406 338.65625 488.894531 C 339.71875 489.226562 340.792969 489.523438 341.875 489.792969 C 342.957031 490.058594 344.042969 490.292969 345.140625 490.492188 C 346.234375 490.695312 347.335938 490.863281 348.441406 490.996094 C 349.550781 491.132812 350.65625 491.234375 351.769531 491.304688 C 352.882812 491.371094 353.996094 491.410156 355.109375 491.410156 C 356.222656 491.414062 357.335938 491.382812 358.449219 491.316406 C 359.5625 491.253906 360.671875 491.15625 361.777344 491.023438 C 362.882812 490.894531 363.984375 490.730469 365.082031 490.53125 C 366.179688 490.335938 367.269531 490.105469 368.351562 489.84375 C 369.433594 489.582031 370.507812 489.289062 371.574219 488.960938 C 372.640625 488.632812 373.695312 488.277344 374.738281 487.886719 C 375.78125 487.496094 376.8125 487.078125 377.832031 486.625 C 378.851562 486.175781 379.855469 485.691406 380.84375 485.179688 C 381.835938 484.667969 382.808594 484.128906 383.765625 483.558594 C 384.722656 482.988281 385.664062 482.390625 386.585938 481.765625 C 387.507812 481.140625 388.410156 480.484375 389.292969 479.804688 C 390.175781 479.125 391.035156 478.417969 391.875 477.6875 C 392.714844 476.957031 393.535156 476.199219 394.328125 475.417969 C 395.125 474.640625 395.894531 473.835938 396.640625 473.007812 C 397.390625 472.179688 398.109375 471.332031 398.808594 470.460938 C 399.503906 469.59375 400.171875 468.703125 400.816406 467.792969 C 401.457031 466.882812 402.074219 465.953125 402.660156 465.007812 C 403.246094 464.058594 403.804688 463.097656 404.335938 462.117188 C 404.863281 461.136719 405.363281 460.140625 405.835938 459.128906 C 406.304688 458.121094 406.742188 457.097656 407.152344 456.058594 C 407.558594 455.023438 407.9375 453.976562 408.285156 452.914062 C 408.628906 451.855469 408.941406 450.789062 409.226562 449.710938 C 409.507812 448.632812 409.757812 447.546875 409.972656 446.453125 C 410.191406 445.359375 410.375 444.261719 410.523438 443.15625 C 410.675781 442.054688 410.792969 440.945312 410.878906 439.835938 C 410.964844 438.722656 411.015625 437.613281 411.03125 436.496094 C 411.050781 435.382812 411.035156 434.269531 410.988281 433.15625 C 410.9375 432.042969 410.855469 430.933594 410.742188 429.824219 C 410.625 428.714844 410.476562 427.613281 410.296875 426.511719 C 410.117188 425.414062 409.902344 424.320312 409.65625 423.234375 C 409.410156 422.148438 409.128906 421.070312 408.820312 420 C 408.507812 418.929688 408.164062 417.871094 407.789062 416.820312 L 597.101562 284.417969 C 598.464844 285.550781 599.882812 286.617188 601.347656 287.617188 C 602.8125 288.613281 604.324219 289.539062 605.875 290.394531 C 607.429688 291.25 609.023438 292.03125 610.652344 292.734375 C 612.277344 293.4375 613.9375 294.058594 615.625 294.605469 C 617.3125 295.148438 619.023438 295.613281 620.753906 295.996094 C 622.488281 296.378906 624.234375 296.675781 625.996094 296.890625 C 627.753906 297.105469 629.523438 297.238281 631.296875 297.285156 C 633.070312 297.332031 634.839844 297.292969 636.609375 297.171875 C 638.378906 297.050781 640.140625 296.84375 641.890625 296.554688 C 643.640625 296.265625 645.371094 295.890625 647.085938 295.4375 C 648.800781 294.984375 650.488281 294.445312 652.152344 293.832031 C 653.816406 293.214844 655.445312 292.523438 657.042969 291.75 C 658.640625 290.980469 660.195312 290.132812 661.714844 289.214844 C 663.230469 288.292969 664.699219 287.304688 666.121094 286.242188 C 667.542969 285.183594 668.914062 284.058594 670.226562 282.867188 C 671.542969 281.679688 672.796875 280.425781 673.992188 279.117188 L 778.824219 332.707031 C 778.59375 333.8125 778.394531 334.925781 778.230469 336.046875 C 778.066406 337.164062 777.9375 338.289062 777.839844 339.417969 C 777.746094 340.542969 777.683594 341.671875 777.65625 342.804688 C 777.628906 343.933594 777.636719 345.066406 777.679688 346.195312 C 777.71875 347.328125 777.796875 348.453125 777.90625 349.582031 C 778.015625 350.707031 778.160156 351.828125 778.335938 352.945312 C 778.515625 354.0625 778.726562 355.171875 778.972656 356.277344 C 779.21875 357.382812 779.496094 358.476562 779.808594 359.566406 C 780.121094 360.652344 780.464844 361.730469 780.84375 362.796875 C 781.21875 363.863281 781.628906 364.917969 782.070312 365.957031 C 782.511719 367 782.984375 368.027344 783.488281 369.039062 C 783.992188 370.054688 784.527344 371.050781 785.089844 372.03125 C 785.65625 373.011719 786.25 373.972656 786.871094 374.917969 C 787.496094 375.863281 788.144531 376.789062 788.824219 377.691406 C 789.503906 378.597656 790.207031 379.480469 790.941406 380.34375 C 791.675781 381.207031 792.433594 382.042969 793.214844 382.859375 C 794 383.675781 794.808594 384.46875 795.636719 385.234375 C 796.46875 386.003906 797.324219 386.742188 798.199219 387.457031 C 799.078125 388.171875 799.976562 388.859375 800.894531 389.523438 C 801.8125 390.183594 802.75 390.816406 803.707031 391.417969 C 804.664062 392.023438 805.636719 392.597656 806.628906 393.140625 C 807.621094 393.683594 808.628906 394.199219 809.652344 394.683594 C 810.671875 395.167969 811.710938 395.617188 812.761719 396.039062 C 813.8125 396.457031 814.871094 396.847656 815.945312 397.203125 C 817.019531 397.558594 818.105469 397.882812 819.199219 398.171875 C 820.292969 398.460938 821.390625 398.71875 822.5 398.941406 C 823.609375 399.164062 824.726562 399.355469 825.847656 399.511719 C 826.964844 399.664062 828.089844 399.789062 829.21875 399.875 C 830.347656 399.960938 831.476562 400.015625 832.609375 400.035156 C 833.738281 400.050781 834.871094 400.035156 836 399.984375 C 837.128906 399.9375 838.257812 399.851562 839.382812 399.734375 C 840.507812 399.613281 841.628906 399.460938 842.742188 399.277344 C 843.859375 399.089844 844.96875 398.871094 846.070312 398.617188 C 847.175781 398.363281 848.269531 398.074219 849.351562 397.753906 C 850.4375 397.433594 851.511719 397.082031 852.574219 396.695312 C 853.640625 396.308594 854.691406 395.894531 855.730469 395.441406 C 856.765625 394.992188 857.789062 394.511719 858.800781 394.003906 C 859.808594 393.492188 860.800781 392.949219 861.777344 392.378906 C 862.753906 391.804688 863.710938 391.203125 864.652344 390.574219 C 865.589844 389.945312 866.511719 389.285156 867.410156 388.601562 C 868.308594 387.914062 869.1875 387.203125 870.046875 386.464844 C 870.902344 385.722656 871.734375 384.960938 872.542969 384.171875 C 873.355469 383.378906 874.140625 382.566406 874.902344 381.730469 C 875.660156 380.890625 876.394531 380.03125 877.105469 379.148438 C 877.8125 378.269531 878.492188 377.363281 879.148438 376.441406 C 879.800781 375.519531 880.425781 374.574219 881.023438 373.613281 C 881.617188 372.652344 882.1875 371.675781 882.722656 370.679688 C 883.257812 369.683594 883.765625 368.671875 884.242188 367.644531 C 884.71875 366.617188 885.160156 365.578125 885.574219 364.527344 C 885.984375 363.472656 886.367188 362.40625 886.714844 361.332031 C 887.0625 360.253906 887.375 359.167969 887.65625 358.070312 C 887.941406 356.976562 888.1875 355.875 888.402344 354.761719 C 888.617188 353.652344 888.796875 352.535156 888.945312 351.414062 C 889.09375 350.292969 889.207031 349.167969 889.285156 348.039062 C 889.363281 346.910156 889.40625 345.78125 889.417969 344.648438 C 889.425781 343.515625 889.402344 342.386719 889.34375 341.257812 C 889.285156 340.125 889.191406 339 889.066406 337.875 C 888.9375 336.75 888.777344 335.632812 888.582031 334.519531 C 888.386719 333.402344 888.160156 332.296875 887.898438 331.195312 C 887.632812 330.09375 887.339844 329.003906 887.011719 327.921875 C 886.683594 326.839844 886.320312 325.765625 885.925781 324.707031 C 885.535156 323.644531 885.109375 322.597656 884.652344 321.5625 C 884.195312 320.527344 883.707031 319.507812 883.1875 318.503906 C 882.667969 317.496094 882.117188 316.507812 881.539062 315.539062 L 1061.351562 128.6875 L 1051.609375 181.28125 C 1051.410156 182.242188 1051.304688 183.21875 1051.296875 184.203125 C 1051.289062 185.191406 1051.378906 186.167969 1051.566406 187.132812 C 1051.753906 188.101562 1052.039062 189.039062 1052.414062 189.949219 C 1052.789062 190.863281 1053.25 191.726562 1053.800781 192.546875 C 1054.347656 193.363281 1054.972656 194.121094 1055.671875 194.8125 C 1056.371094 195.507812 1057.132812 196.125 1057.957031 196.667969 C 1058.78125 197.207031 1059.648438 197.664062 1060.5625 198.03125 C 1061.476562 198.398438 1062.417969 198.671875 1063.386719 198.851562 C 1064.355469 199.03125 1065.332031 199.113281 1066.320312 199.097656 C 1067.304688 199.082031 1068.277344 198.96875 1069.242188 198.757812 C 1070.203125 198.550781 1071.136719 198.246094 1072.039062 197.847656 C 1072.941406 197.453125 1073.792969 196.96875 1074.597656 196.402344 C 1075.40625 195.835938 1076.148438 195.195312 1076.824219 194.476562 C 1077.5 193.761719 1078.101562 192.984375 1078.625 192.152344 C 1079.144531 191.316406 1079.582031 190.4375 1079.925781 189.511719 C 1080.273438 188.589844 1080.523438 187.644531 1080.683594 186.671875 L 1099.363281 85.777344 C 1099.476562 85.175781 1099.550781 84.570312 1099.589844 83.960938 C 1099.628906 83.351562 1099.632812 82.742188 1099.59375 82.132812 C 1099.558594 81.523438 1099.484375 80.917969 1099.371094 80.316406 C 1099.261719 79.71875 1099.113281 79.125 1098.929688 78.542969 C 1098.742188 77.960938 1098.523438 77.394531 1098.265625 76.839844 C 1098.011719 76.285156 1097.722656 75.746094 1097.402344 75.226562 C 1097.078125 74.707031 1096.726562 74.210938 1096.34375 73.734375 C 1095.957031 73.261719 1095.546875 72.8125 1095.105469 72.386719 C 1094.667969 71.960938 1094.203125 71.566406 1093.714844 71.199219 C 1093.226562 70.832031 1092.71875 70.5 1092.1875 70.195312 C 1091.65625 69.890625 1091.109375 69.621094 1090.546875 69.386719 C 1089.984375 69.152344 1089.40625 68.949219 1088.820312 68.785156 C 1088.230469 68.621094 1087.632812 68.496094 1087.03125 68.402344 C 1086.425781 68.3125 1085.820312 68.261719 1085.207031 68.246094 C 1084.597656 68.230469 1083.988281 68.253906 1083.378906 68.316406 C 1082.773438 68.375 1082.171875 68.472656 1081.574219 68.609375 L 981.484375 91.203125 C 981 91.296875 980.519531 91.414062 980.050781 91.558594 C 979.578125 91.699219 979.113281 91.867188 978.660156 92.054688 C 978.203125 92.242188 977.757812 92.457031 977.324219 92.6875 C 976.890625 92.921875 976.46875 93.175781 976.058594 93.453125 C 975.652344 93.726562 975.257812 94.023438 974.878906 94.335938 C 974.5 94.652344 974.136719 94.984375 973.789062 95.335938 C 973.445312 95.6875 973.117188 96.054688 972.808594 96.4375 C 972.5 96.824219 972.210938 97.222656 971.941406 97.632812 C 971.671875 98.046875 971.421875 98.472656 971.195312 98.910156 C 970.96875 99.347656 970.765625 99.796875 970.582031 100.253906 C 970.402344 100.710938 970.242188 101.179688 970.105469 101.652344 C 969.972656 102.125 969.859375 102.605469 969.773438 103.089844 C 969.6875 103.574219 969.621094 104.0625 969.582031 104.554688 C 969.546875 105.046875 969.53125 105.539062 969.542969 106.03125 C 969.550781 106.523438 969.585938 107.015625 969.648438 107.503906 C 969.707031 107.992188 969.789062 108.480469 969.898438 108.960938 C 970.007812 109.441406 970.140625 109.914062 970.292969 110.382812 C 970.449219 110.851562 970.628906 111.308594 970.832031 111.757812 C 971.03125 112.207031 971.253906 112.648438 971.5 113.074219 C 971.746094 113.503906 972.011719 113.917969 972.300781 114.316406 C 972.585938 114.71875 972.890625 115.105469 973.21875 115.472656 C 973.542969 115.84375 973.886719 116.199219 974.246094 116.535156 C 974.605469 116.871094 974.984375 117.1875 975.375 117.484375 C 975.769531 117.785156 976.175781 118.0625 976.59375 118.320312 C 977.015625 118.578125 977.445312 118.8125 977.890625 119.027344 C 978.335938 119.242188 978.789062 119.433594 979.25 119.601562 C 979.714844 119.773438 980.183594 119.917969 980.660156 120.039062 C 981.140625 120.164062 981.621094 120.261719 982.109375 120.335938 C 982.597656 120.410156 983.085938 120.457031 983.578125 120.484375 C 984.070312 120.507812 984.5625 120.507812 985.054688 120.484375 C 985.546875 120.460938 986.039062 120.410156 986.523438 120.335938 C 987.011719 120.265625 987.496094 120.167969 987.972656 120.046875 L 1039.855469 108.371094 L 860.25 295.039062 C 858.890625 294.296875 857.503906 293.613281 856.089844 292.988281 C 854.671875 292.363281 853.234375 291.796875 851.773438 291.292969 C 850.308594 290.785156 848.828125 290.34375 847.328125 289.960938 C 845.828125 289.578125 844.316406 289.257812 842.789062 289 C 841.265625 288.746094 839.730469 288.550781 838.1875 288.421875 C 836.644531 288.292969 835.101562 288.230469 833.554688 288.230469 C 832.007812 288.230469 830.460938 288.292969 828.917969 288.421875 C 827.378906 288.550781 825.84375 288.742188 824.316406 288.996094 C 822.789062 289.253906 821.277344 289.570312 819.777344 289.953125 C 818.277344 290.335938 816.796875 290.777344 815.335938 291.285156 C 813.871094 291.789062 812.433594 292.351562 811.015625 292.976562 C 809.601562 293.601562 808.214844 294.285156 806.855469 295.027344 C 805.496094 295.765625 804.171875 296.5625 802.878906 297.410156 C 801.585938 298.261719 800.328125 299.164062 799.113281 300.121094 C 797.894531 301.074219 796.71875 302.078125 795.585938 303.132812 C 794.449219 304.183594 793.363281 305.285156 792.320312 306.425781 L 687.488281 252.804688 C 687.707031 251.75 687.894531 250.695312 688.054688 249.632812 C 688.210938 248.570312 688.339844 247.503906 688.4375 246.433594 C 688.535156 245.363281 688.597656 244.289062 688.632812 243.21875 C 688.667969 242.144531 688.671875 241.070312 688.644531 239.996094 C 688.617188 238.921875 688.558594 237.847656 688.472656 236.777344 C 688.382812 235.707031 688.261719 234.640625 688.113281 233.574219 C 687.960938 232.511719 687.78125 231.453125 687.570312 230.398438 C 687.359375 229.347656 687.117188 228.300781 686.84375 227.261719 C 686.574219 226.222656 686.269531 225.191406 685.941406 224.167969 C 685.609375 223.148438 685.246094 222.136719 684.859375 221.132812 C 684.46875 220.132812 684.050781 219.144531 683.601562 218.167969 C 683.15625 217.1875 682.683594 216.226562 682.179688 215.277344 C 681.675781 214.328125 681.148438 213.390625 680.59375 212.472656 C 680.035156 211.554688 679.453125 210.652344 678.847656 209.765625 C 678.238281 208.878906 677.605469 208.011719 676.945312 207.164062 C 676.289062 206.3125 675.605469 205.484375 674.898438 204.675781 C 674.195312 203.863281 673.464844 203.074219 672.714844 202.308594 C 671.960938 201.539062 671.1875 200.792969 670.394531 200.070312 C 669.597656 199.347656 668.785156 198.648438 667.949219 197.972656 C 667.113281 197.296875 666.261719 196.644531 665.386719 196.019531 C 664.515625 195.390625 663.625 194.789062 662.71875 194.214844 C 661.8125 193.636719 660.890625 193.089844 659.949219 192.566406 C 659.011719 192.042969 658.058594 191.550781 657.089844 191.082031 C 656.125 190.613281 655.144531 190.175781 654.148438 189.765625 C 653.15625 189.351562 652.152344 188.972656 651.140625 188.617188 C 650.125 188.265625 649.101562 187.941406 648.066406 187.648438 C 647.035156 187.355469 645.992188 187.089844 644.945312 186.855469 C 643.894531 186.621094 642.839844 186.417969 641.78125 186.246094 C 640.71875 186.070312 639.65625 185.929688 638.585938 185.816406 C 637.519531 185.707031 636.449219 185.625 635.375 185.574219 C 634.300781 185.523438 633.226562 185.507812 632.152344 185.519531 C 631.078125 185.53125 630.003906 185.574219 628.933594 185.648438 C 627.863281 185.71875 626.792969 185.824219 625.726562 185.960938 C 624.660156 186.097656 623.601562 186.261719 622.542969 186.460938 C 621.488281 186.65625 620.4375 186.882812 619.394531 187.140625 C 618.351562 187.398438 617.316406 187.683594 616.289062 188 C 615.261719 188.316406 614.246094 188.664062 613.242188 189.039062 C 612.234375 189.414062 611.238281 189.820312 610.253906 190.253906 C 609.273438 190.683594 608.300781 191.144531 607.34375 191.632812 C 606.386719 192.125 605.445312 192.640625 604.519531 193.183594 C 603.59375 193.726562 602.683594 194.296875 601.789062 194.890625 C 600.894531 195.488281 600.015625 196.109375 599.160156 196.753906 C 598.300781 197.398438 597.460938 198.070312 596.640625 198.765625 C 595.824219 199.460938 595.023438 200.175781 594.246094 200.917969 C 593.464844 201.660156 592.710938 202.421875 591.976562 203.207031 C 591.242188 203.988281 590.53125 204.792969 589.84375 205.621094 C 589.15625 206.445312 588.492188 207.289062 587.851562 208.152344 C 587.210938 209.015625 586.597656 209.898438 586.011719 210.796875 C 585.421875 211.695312 584.859375 212.609375 584.324219 213.542969 C 583.789062 214.472656 583.28125 215.417969 582.800781 216.378906 C 582.320312 217.339844 581.867188 218.316406 581.441406 219.300781 C 581.015625 220.289062 580.621094 221.285156 580.253906 222.296875 C 579.886719 223.304688 579.546875 224.324219 579.238281 225.355469 C 578.929688 226.382812 578.652344 227.421875 578.402344 228.464844 C 578.152344 229.511719 577.9375 230.5625 577.746094 231.621094 C 577.558594 232.679688 577.402344 233.742188 577.273438 234.808594 C 577.148438 235.875 577.050781 236.945312 576.988281 238.015625 C 576.921875 239.089844 576.886719 240.164062 576.886719 241.238281 C 576.882812 242.3125 576.910156 243.386719 576.96875 244.457031 C 577.027344 245.53125 577.117188 246.601562 577.238281 247.667969 C 577.355469 248.734375 577.507812 249.800781 577.691406 250.859375 C 577.871094 251.917969 578.085938 252.96875 578.328125 254.015625 C 578.570312 255.0625 578.839844 256.101562 579.144531 257.132812 C 579.445312 258.164062 579.777344 259.1875 580.140625 260.199219 Z M 1237.429688 780.234375 L 202.558594 780.234375 C 202.066406 780.21875 201.574219 780.230469 201.082031 780.265625 C 200.589844 780.300781 200.101562 780.359375 199.613281 780.445312 C 199.128906 780.53125 198.648438 780.636719 198.175781 780.769531 C 197.699219 780.902344 197.230469 781.058594 196.773438 781.238281 C 196.3125 781.417969 195.863281 781.617188 195.425781 781.84375 C 194.988281 782.066406 194.558594 782.3125 194.144531 782.578125 C 193.730469 782.84375 193.332031 783.132812 192.945312 783.4375 C 192.558594 783.746094 192.1875 784.070312 191.835938 784.414062 C 191.480469 784.757812 191.148438 785.117188 190.828125 785.496094 C 190.511719 785.871094 190.214844 786.265625 189.9375 786.671875 C 189.660156 787.078125 189.402344 787.5 189.164062 787.929688 C 188.929688 788.363281 188.714844 788.808594 188.523438 789.261719 C 188.332031 789.714844 188.164062 790.175781 188.015625 790.648438 C 187.871094 791.121094 187.75 791.597656 187.652344 792.078125 C 187.554688 792.5625 187.480469 793.050781 187.429688 793.539062 C 187.382812 794.03125 187.359375 794.523438 187.359375 795.015625 C 187.359375 795.507812 187.382812 796 187.429688 796.488281 C 187.480469 796.980469 187.554688 797.46875 187.652344 797.949219 C 187.75 798.433594 187.871094 798.910156 188.015625 799.382812 C 188.164062 799.851562 188.332031 800.316406 188.523438 800.769531 C 188.714844 801.222656 188.929688 801.667969 189.164062 802.097656 C 189.402344 802.53125 189.660156 802.953125 189.9375 803.359375 C 190.214844 803.765625 190.511719 804.15625 190.828125 804.535156 C 191.148438 804.910156 191.480469 805.273438 191.835938 805.617188 C 192.1875 805.960938 192.558594 806.285156 192.945312 806.589844 C 193.332031 806.898438 193.730469 807.183594 194.144531 807.453125 C 194.558594 807.71875 194.988281 807.964844 195.425781 808.1875 C 195.863281 808.410156 196.3125 808.613281 196.773438 808.792969 C 197.230469 808.972656 197.699219 809.128906 198.175781 809.257812 C 198.648438 809.390625 199.128906 809.5 199.613281 809.585938 C 200.101562 809.667969 200.589844 809.730469 201.082031 809.765625 C 201.574219 809.800781 202.066406 809.8125 202.558594 809.796875 L 1237.429688 809.796875 C 1237.925781 809.8125 1238.417969 809.800781 1238.90625 809.765625 C 1239.398438 809.730469 1239.886719 809.667969 1240.375 809.585938 C 1240.859375 809.5 1241.339844 809.390625 1241.8125 809.257812 C 1242.289062 809.128906 1242.757812 808.972656 1243.214844 808.792969 C 1243.675781 808.613281 1244.125 808.410156 1244.5625 808.1875 C 1245 807.964844 1245.429688 807.71875 1245.84375 807.453125 C 1246.257812 807.183594 1246.65625 806.898438 1247.042969 806.589844 C 1247.429688 806.285156 1247.800781 805.960938 1248.152344 805.617188 C 1248.507812 805.273438 1248.839844 804.910156 1249.160156 804.535156 C 1249.476562 804.15625 1249.773438 803.765625 1250.050781 803.359375 C 1250.332031 802.953125 1250.585938 802.53125 1250.824219 802.097656 C 1251.058594 801.667969 1251.273438 801.222656 1251.464844 800.769531 C 1251.65625 800.316406 1251.824219 799.851562 1251.972656 799.382812 C 1252.117188 798.910156 1252.238281 798.433594 1252.335938 797.949219 C 1252.433594 797.46875 1252.507812 796.980469 1252.558594 796.488281 C 1252.605469 796 1252.628906 795.507812 1252.628906 795.015625 C 1252.628906 794.523438 1252.605469 794.03125 1252.558594 793.539062 C 1252.507812 793.050781 1252.433594 792.5625 1252.335938 792.078125 C 1252.238281 791.597656 1252.117188 791.121094 1251.972656 790.648438 C 1251.824219 790.175781 1251.65625 789.714844 1251.464844 789.261719 C 1251.273438 788.808594 1251.058594 788.363281 1250.824219 787.929688 C 1250.585938 787.5 1250.328125 787.078125 1250.050781 786.671875 C 1249.773438 786.265625 1249.476562 785.871094 1249.160156 785.496094 C 1248.839844 785.117188 1248.507812 784.757812 1248.152344 784.414062 C 1247.800781 784.070312 1247.429688 783.746094 1247.042969 783.4375 C 1246.65625 783.132812 1246.257812 782.84375 1245.84375 782.578125 C 1245.429688 782.3125 1245.003906 782.066406 1244.5625 781.84375 C 1244.125 781.617188 1243.675781 781.417969 1243.214844 781.238281 C 1242.757812 781.058594 1242.289062 780.902344 1241.8125 780.769531 C 1241.339844 780.636719 1240.859375 780.53125 1240.375 780.445312 C 1239.886719 780.359375 1239.398438 780.300781 1238.90625 780.265625 C 1238.417969 780.230469 1237.925781 780.21875 1237.429688 780.234375 Z M 238.679688 156.019531 C 238.679688 153.574219 238.738281 151.132812 238.859375 148.691406 C 238.980469 146.25 239.160156 143.816406 239.398438 141.382812 C 239.636719 138.949219 239.9375 136.527344 240.292969 134.109375 C 240.652344 131.691406 241.070312 129.285156 241.546875 126.886719 C 242.023438 124.492188 242.558594 122.105469 243.152344 119.734375 C 243.746094 117.367188 244.398438 115.011719 245.105469 112.671875 C 245.816406 110.332031 246.582031 108.015625 247.40625 105.710938 C 248.226562 103.410156 249.105469 101.132812 250.042969 98.875 C 250.976562 96.617188 251.96875 94.382812 253.011719 92.175781 C 254.054688 89.964844 255.15625 87.78125 256.304688 85.628906 C 257.457031 83.472656 258.664062 81.347656 259.917969 79.25 C 261.175781 77.152344 262.480469 75.089844 263.839844 73.058594 C 265.195312 71.027344 266.601562 69.027344 268.058594 67.066406 C 269.515625 65.101562 271.019531 63.175781 272.566406 61.285156 C 274.117188 59.398438 275.714844 57.546875 277.355469 55.738281 C 278.996094 53.925781 280.679688 52.15625 282.40625 50.429688 C 284.136719 48.699219 285.90625 47.015625 287.714844 45.375 C 289.527344 43.734375 291.375 42.136719 293.265625 40.585938 C 295.152344 39.035156 297.082031 37.535156 299.042969 36.078125 C 301.003906 34.621094 303.003906 33.214844 305.035156 31.855469 C 307.066406 30.5 309.128906 29.191406 311.226562 27.933594 C 313.324219 26.679688 315.449219 25.476562 317.601562 24.324219 C 319.757812 23.171875 321.941406 22.070312 324.148438 21.027344 C 326.359375 19.980469 328.59375 18.992188 330.851562 18.054688 C 333.109375 17.121094 335.386719 16.242188 337.6875 15.417969 C 339.988281 14.59375 342.308594 13.828125 344.648438 13.117188 C 346.984375 12.410156 349.339844 11.757812 351.710938 11.164062 C 354.082031 10.570312 356.464844 10.035156 358.863281 9.558594 C 361.257812 9.082031 363.664062 8.664062 366.082031 8.304688 C 368.5 7.945312 370.925781 7.644531 373.355469 7.40625 C 375.789062 7.167969 378.226562 6.988281 380.664062 6.867188 C 383.105469 6.746094 385.550781 6.6875 387.992188 6.6875 C 390.4375 6.6875 392.878906 6.746094 395.320312 6.867188 C 397.761719 6.984375 400.195312 7.164062 402.628906 7.40625 C 405.0625 7.644531 407.484375 7.945312 409.902344 8.300781 C 412.320312 8.660156 414.726562 9.078125 417.125 9.554688 C 419.519531 10.03125 421.90625 10.566406 424.277344 11.160156 C 426.644531 11.753906 429 12.40625 431.339844 13.113281 C 433.679688 13.824219 435.996094 14.589844 438.296875 15.414062 C 440.597656 16.238281 442.878906 17.117188 445.136719 18.050781 C 447.394531 18.984375 449.628906 19.976562 451.835938 21.019531 C 454.046875 22.066406 456.230469 23.164062 458.382812 24.316406 C 460.539062 25.46875 462.664062 26.671875 464.761719 27.925781 C 466.855469 29.183594 468.921875 30.492188 470.953125 31.847656 C 472.984375 33.207031 474.984375 34.613281 476.945312 36.070312 C 478.910156 37.523438 480.835938 39.027344 482.722656 40.578125 C 484.613281 42.128906 486.460938 43.722656 488.273438 45.363281 C 490.085938 47.003906 491.855469 48.691406 493.582031 50.417969 C 495.308594 52.144531 496.996094 53.914062 498.636719 55.726562 C 500.277344 57.535156 501.871094 59.386719 503.421875 61.273438 C 504.972656 63.164062 506.476562 65.089844 507.933594 67.054688 C 509.386719 69.015625 510.796875 71.011719 512.152344 73.046875 C 513.511719 75.078125 514.816406 77.140625 516.074219 79.238281 C 517.332031 81.332031 518.535156 83.457031 519.6875 85.613281 C 520.839844 87.769531 521.9375 89.949219 522.984375 92.160156 C 524.027344 94.371094 525.015625 96.601562 525.953125 98.859375 C 526.886719 101.117188 527.765625 103.398438 528.589844 105.699219 C 529.414062 108 530.179688 110.320312 530.890625 112.65625 C 531.597656 114.996094 532.25 117.351562 532.84375 119.722656 C 533.4375 122.089844 533.972656 124.476562 534.449219 126.871094 C 534.929688 129.269531 535.34375 131.675781 535.703125 134.09375 C 536.0625 136.511719 536.363281 138.933594 536.601562 141.367188 C 536.839844 143.800781 537.019531 146.234375 537.140625 148.675781 C 537.261719 151.117188 537.320312 153.558594 537.320312 156.003906 C 537.320312 158.449219 537.261719 160.890625 537.140625 163.332031 C 537.019531 165.769531 536.839844 168.207031 536.601562 170.640625 C 536.363281 173.070312 536.0625 175.496094 535.707031 177.914062 C 535.347656 180.332031 534.929688 182.738281 534.453125 185.136719 C 533.976562 187.53125 533.441406 189.914062 532.847656 192.285156 C 532.253906 194.65625 531.601562 197.011719 530.890625 199.351562 C 530.183594 201.6875 529.417969 204.007812 528.59375 206.308594 C 527.769531 208.609375 526.890625 210.890625 525.957031 213.148438 C 525.019531 215.40625 524.03125 217.636719 522.984375 219.847656 C 521.941406 222.058594 520.84375 224.238281 519.691406 226.394531 C 518.539062 228.550781 517.335938 230.675781 516.078125 232.769531 C 514.820312 234.867188 513.515625 236.929688 512.15625 238.964844 C 510.800781 240.996094 509.394531 242.992188 507.9375 244.957031 C 506.480469 246.917969 504.976562 248.84375 503.429688 250.734375 C 501.878906 252.621094 500.28125 254.472656 498.640625 256.285156 C 497 258.09375 495.316406 259.863281 493.585938 261.589844 C 491.859375 263.320312 490.089844 265.003906 488.277344 266.644531 C 486.46875 268.285156 484.617188 269.882812 482.730469 271.433594 C 480.839844 272.984375 478.914062 274.484375 476.953125 275.941406 C 474.988281 277.398438 472.992188 278.804688 470.960938 280.160156 C 468.925781 281.519531 466.863281 282.828125 464.769531 284.082031 C 462.671875 285.339844 460.546875 286.542969 458.390625 287.695312 C 456.234375 288.847656 454.054688 289.945312 451.84375 290.992188 C 449.636719 292.035156 447.402344 293.027344 445.144531 293.960938 C 442.886719 294.894531 440.605469 295.777344 438.304688 296.597656 C 436.003906 297.421875 433.683594 298.1875 431.347656 298.898438 C 429.007812 299.609375 426.652344 300.257812 424.28125 300.851562 C 421.914062 301.445312 419.527344 301.980469 417.132812 302.457031 C 414.734375 302.933594 412.328125 303.351562 409.910156 303.710938 C 407.492188 304.070312 405.070312 304.371094 402.636719 304.609375 C 400.203125 304.847656 397.769531 305.027344 395.328125 305.148438 C 392.886719 305.269531 390.445312 305.328125 388 305.328125 C 385.558594 305.324219 383.117188 305.261719 380.675781 305.140625 C 378.238281 305.019531 375.800781 304.835938 373.371094 304.59375 C 370.9375 304.351562 368.515625 304.050781 366.097656 303.691406 C 363.683594 303.332031 361.277344 302.910156 358.882812 302.433594 C 356.484375 301.953125 354.105469 301.417969 351.734375 300.820312 C 349.367188 300.226562 347.011719 299.574219 344.675781 298.863281 C 342.335938 298.152344 340.019531 297.386719 337.71875 296.5625 C 335.417969 295.734375 333.140625 294.855469 330.886719 293.921875 C 328.628906 292.984375 326.398438 291.992188 324.1875 290.949219 C 321.980469 289.902344 319.800781 288.804688 317.644531 287.652344 C 315.492188 286.5 313.367188 285.292969 311.273438 284.039062 C 309.175781 282.78125 307.113281 281.472656 305.082031 280.117188 C 303.054688 278.757812 301.054688 277.351562 299.09375 275.894531 C 297.132812 274.441406 295.207031 272.9375 293.320312 271.386719 C 291.429688 269.839844 289.582031 268.242188 287.773438 266.601562 C 285.960938 264.960938 284.191406 263.277344 282.464844 261.550781 C 280.738281 259.824219 279.054688 258.054688 277.414062 256.246094 C 275.773438 254.433594 274.175781 252.585938 272.628906 250.699219 C 271.078125 248.808594 269.574219 246.882812 268.117188 244.921875 C 266.664062 242.960938 265.253906 240.964844 263.898438 238.933594 C 262.539062 236.902344 261.234375 234.839844 259.976562 232.746094 C 258.71875 230.648438 257.515625 228.527344 256.363281 226.371094 C 255.210938 224.21875 254.109375 222.039062 253.066406 219.828125 C 252.019531 217.621094 251.027344 215.390625 250.09375 213.132812 C 249.15625 210.875 248.277344 208.597656 247.449219 206.300781 C 246.625 204 245.859375 201.679688 245.148438 199.34375 C 244.4375 197.007812 243.785156 194.652344 243.1875 192.285156 C 242.59375 189.914062 242.054688 187.53125 241.578125 185.136719 C 241.097656 182.742188 240.679688 180.335938 240.316406 177.917969 C 239.957031 175.503906 239.65625 173.078125 239.414062 170.648438 C 239.171875 168.21875 238.992188 165.78125 238.867188 163.34375 C 238.746094 160.902344 238.683594 158.460938 238.679688 156.019531 Z M 342.285156 197.335938 C 342.3125 198.464844 342.386719 199.589844 342.503906 200.714844 C 342.621094 201.835938 342.78125 202.949219 342.988281 204.0625 C 343.191406 205.171875 343.441406 206.269531 343.734375 207.359375 C 344.023438 208.449219 344.359375 209.527344 344.738281 210.589844 C 345.113281 211.652344 345.53125 212.699219 345.992188 213.730469 C 346.453125 214.761719 346.953125 215.769531 347.492188 216.761719 C 348.03125 217.75 348.609375 218.71875 349.226562 219.664062 C 349.84375 220.609375 350.496094 221.527344 351.1875 222.421875 C 351.875 223.316406 352.597656 224.179688 353.355469 225.015625 C 354.113281 225.851562 354.902344 226.65625 355.722656 227.429688 C 356.546875 228.203125 357.394531 228.945312 358.277344 229.652344 C 359.15625 230.359375 360.0625 231.027344 360.996094 231.664062 C 361.925781 232.296875 362.882812 232.894531 363.863281 233.453125 C 364.84375 234.015625 365.84375 234.535156 366.863281 235.011719 C 367.886719 235.492188 368.925781 235.933594 369.980469 236.332031 C 371.035156 236.730469 372.105469 237.085938 373.191406 237.398438 L 373.191406 251.382812 C 373.214844 252.335938 373.332031 253.28125 373.542969 254.210938 C 373.75 255.140625 374.046875 256.042969 374.429688 256.914062 C 374.8125 257.789062 375.277344 258.617188 375.820312 259.402344 C 376.363281 260.183594 376.976562 260.910156 377.660156 261.574219 C 378.34375 262.238281 379.085938 262.832031 379.886719 263.355469 C 380.683594 263.875 381.523438 264.316406 382.40625 264.675781 C 383.292969 265.03125 384.203125 265.304688 385.136719 265.488281 C 386.074219 265.667969 387.019531 265.761719 387.972656 265.761719 C 388.925781 265.761719 389.871094 265.667969 390.804688 265.488281 C 391.742188 265.304688 392.652344 265.03125 393.535156 264.675781 C 394.417969 264.316406 395.261719 263.875 396.058594 263.355469 C 396.855469 262.832031 397.597656 262.238281 398.28125 261.574219 C 398.964844 260.910156 399.578125 260.183594 400.121094 259.402344 C 400.667969 258.617188 401.128906 257.789062 401.511719 256.914062 C 401.894531 256.042969 402.191406 255.140625 402.402344 254.210938 C 402.609375 253.28125 402.726562 252.335938 402.753906 251.382812 L 402.753906 237.386719 C 403.835938 237.074219 404.90625 236.71875 405.964844 236.320312 C 407.019531 235.921875 408.058594 235.480469 409.078125 235.003906 C 410.097656 234.523438 411.101562 234.003906 412.078125 233.441406 C 413.058594 232.882812 414.015625 232.285156 414.949219 231.652344 C 415.882812 231.015625 416.789062 230.347656 417.667969 229.640625 C 418.546875 228.933594 419.398438 228.195312 420.21875 227.417969 C 421.039062 226.644531 421.828125 225.839844 422.585938 225.003906 C 423.34375 224.167969 424.066406 223.304688 424.757812 222.410156 C 425.445312 221.515625 426.097656 220.597656 426.714844 219.652344 C 427.332031 218.707031 427.910156 217.738281 428.449219 216.75 C 428.992188 215.757812 429.492188 214.75 429.949219 213.71875 C 430.410156 212.6875 430.828125 211.640625 431.207031 210.578125 C 431.582031 209.515625 431.917969 208.4375 432.210938 207.347656 C 432.503906 206.257812 432.75 205.160156 432.957031 204.050781 C 433.160156 202.941406 433.324219 201.824219 433.441406 200.703125 C 433.558594 199.578125 433.628906 198.453125 433.65625 197.328125 L 433.65625 183.589844 C 433.65625 150.730469 405.945312 144.789062 391.066406 141.597656 C 372.539062 137.613281 371.839844 135.761719 371.839844 128.503906 L 371.839844 114.769531 C 371.96875 113.828125 372.1875 112.910156 372.496094 112.011719 C 372.800781 111.117188 373.191406 110.253906 373.660156 109.433594 C 374.132812 108.609375 374.675781 107.839844 375.296875 107.117188 C 375.914062 106.398438 376.59375 105.746094 377.339844 105.15625 C 378.082031 104.570312 378.875 104.054688 379.714844 103.617188 C 380.558594 103.179688 381.433594 102.828125 382.34375 102.558594 C 383.25 102.289062 384.179688 102.105469 385.121094 102.015625 C 386.066406 101.921875 387.011719 101.917969 387.953125 102.007812 C 388.894531 101.921875 389.835938 101.921875 390.777344 102.015625 C 391.71875 102.109375 392.644531 102.289062 393.550781 102.554688 C 394.457031 102.824219 395.332031 103.175781 396.171875 103.609375 C 397.011719 104.042969 397.804688 104.550781 398.546875 105.136719 C 399.289062 105.722656 399.972656 106.371094 400.59375 107.082031 C 401.214844 107.796875 401.761719 108.5625 402.234375 109.382812 C 402.710938 110.199219 403.105469 111.054688 403.417969 111.945312 C 403.730469 112.839844 403.953125 113.753906 404.09375 114.6875 L 404.09375 128.421875 C 404.09375 129.394531 404.1875 130.355469 404.378906 131.308594 C 404.566406 132.261719 404.847656 133.183594 405.21875 134.082031 C 405.589844 134.980469 406.046875 135.832031 406.585938 136.640625 C 407.125 137.445312 407.738281 138.191406 408.425781 138.878906 C 409.109375 139.566406 409.859375 140.179688 410.664062 140.71875 C 411.472656 141.257812 412.324219 141.714844 413.222656 142.085938 C 414.117188 142.457031 415.042969 142.738281 415.996094 142.925781 C 416.949219 143.117188 417.910156 143.210938 418.878906 143.210938 C 419.851562 143.210938 420.8125 143.117188 421.765625 142.925781 C 422.71875 142.738281 423.644531 142.457031 424.539062 142.085938 C 425.4375 141.714844 426.289062 141.257812 427.097656 140.71875 C 427.902344 140.179688 428.652344 139.566406 429.335938 138.878906 C 430.023438 138.191406 430.636719 137.445312 431.175781 136.640625 C 431.714844 135.832031 432.171875 134.980469 432.542969 134.082031 C 432.914062 133.183594 433.195312 132.261719 433.382812 131.308594 C 433.574219 130.355469 433.667969 129.394531 433.667969 128.421875 L 433.667969 114.6875 C 433.640625 113.558594 433.566406 112.433594 433.453125 111.3125 C 433.335938 110.191406 433.171875 109.074219 432.96875 107.964844 C 432.761719 106.855469 432.515625 105.757812 432.222656 104.667969 C 431.929688 103.578125 431.59375 102.5 431.21875 101.4375 C 430.839844 100.375 430.421875 99.328125 429.960938 98.296875 C 429.5 97.265625 429 96.257812 428.460938 95.265625 C 427.921875 94.273438 427.34375 93.308594 426.726562 92.363281 C 426.109375 91.417969 425.457031 90.496094 424.769531 89.605469 C 424.078125 88.710938 423.355469 87.847656 422.597656 87.011719 C 421.839844 86.171875 421.050781 85.367188 420.230469 84.59375 C 419.410156 83.820312 418.558594 83.082031 417.679688 82.375 C 416.800781 81.667969 415.894531 80.996094 414.960938 80.363281 C 414.027344 79.726562 413.070312 79.132812 412.089844 78.570312 C 411.113281 78.011719 410.109375 77.492188 409.089844 77.011719 C 408.070312 76.53125 407.03125 76.09375 405.976562 75.695312 C 404.917969 75.296875 403.847656 74.941406 402.765625 74.628906 L 402.765625 60.664062 C 402.777344 60.171875 402.769531 59.679688 402.734375 59.1875 C 402.695312 58.695312 402.636719 58.207031 402.554688 57.722656 C 402.46875 57.238281 402.359375 56.757812 402.226562 56.28125 C 402.09375 55.808594 401.941406 55.339844 401.761719 54.878906 C 401.582031 54.421875 401.378906 53.972656 401.15625 53.535156 C 400.933594 53.09375 400.6875 52.667969 400.417969 52.253906 C 400.152344 51.839844 399.867188 51.4375 399.558594 51.050781 C 399.253906 50.667969 398.929688 50.296875 398.585938 49.945312 C 398.242188 49.589844 397.878906 49.253906 397.503906 48.9375 C 397.125 48.621094 396.734375 48.324219 396.328125 48.042969 C 395.917969 47.765625 395.5 47.507812 395.066406 47.273438 C 394.632812 47.035156 394.191406 46.824219 393.738281 46.632812 C 393.28125 46.4375 392.820312 46.269531 392.347656 46.125 C 391.878906 45.980469 391.402344 45.859375 390.917969 45.761719 C 390.433594 45.664062 389.949219 45.589844 389.457031 45.539062 C 388.96875 45.492188 388.476562 45.464844 387.984375 45.464844 C 387.492188 45.464844 387 45.492188 386.507812 45.539062 C 386.019531 45.589844 385.53125 45.664062 385.046875 45.761719 C 384.566406 45.859375 384.085938 45.980469 383.617188 46.125 C 383.144531 46.269531 382.683594 46.4375 382.230469 46.632812 C 381.773438 46.824219 381.332031 47.035156 380.898438 47.273438 C 380.464844 47.507812 380.046875 47.765625 379.640625 48.042969 C 379.234375 48.324219 378.839844 48.621094 378.464844 48.9375 C 378.085938 49.253906 377.726562 49.589844 377.382812 49.945312 C 377.039062 50.296875 376.714844 50.667969 376.40625 51.050781 C 376.101562 51.4375 375.8125 51.839844 375.546875 52.253906 C 375.28125 52.667969 375.035156 53.09375 374.8125 53.535156 C 374.585938 53.972656 374.386719 54.421875 374.207031 54.878906 C 374.027344 55.339844 373.871094 55.808594 373.738281 56.28125 C 373.605469 56.757812 373.496094 57.238281 373.414062 57.722656 C 373.328125 58.207031 373.269531 58.695312 373.234375 59.1875 C 373.199219 59.679688 373.1875 60.171875 373.199219 60.664062 L 373.199219 74.640625 C 372.117188 74.953125 371.046875 75.308594 369.992188 75.707031 C 368.9375 76.105469 367.898438 76.542969 366.875 77.023438 C 365.855469 77.503906 364.855469 78.023438 363.875 78.582031 C 362.894531 79.140625 361.9375 79.738281 361.003906 80.375 C 360.074219 81.007812 359.167969 81.679688 358.289062 82.386719 C 357.40625 83.09375 356.558594 83.832031 355.734375 84.605469 C 354.914062 85.378906 354.125 86.183594 353.367188 87.019531 C 352.609375 87.859375 351.886719 88.722656 351.199219 89.617188 C 350.507812 90.507812 349.855469 91.429688 349.238281 92.375 C 348.621094 93.316406 348.042969 94.285156 347.503906 95.277344 C 346.964844 96.265625 346.464844 97.277344 346.003906 98.308594 C 345.542969 99.339844 345.125 100.386719 344.75 101.449219 C 344.371094 102.511719 344.035156 103.589844 343.746094 104.679688 C 343.453125 105.769531 343.203125 106.867188 343 107.976562 C 342.792969 109.085938 342.632812 110.203125 342.515625 111.324219 C 342.398438 112.445312 342.324219 113.570312 342.296875 114.699219 L 342.296875 128.433594 C 342.296875 161.296875 370.007812 167.234375 384.898438 170.429688 C 403.417969 174.414062 404.117188 176.277344 404.117188 183.523438 L 404.117188 197.257812 C 403.980469 198.195312 403.761719 199.113281 403.453125 200.011719 C 403.140625 200.90625 402.75 201.765625 402.28125 202.585938 C 401.808594 203.410156 401.261719 204.179688 400.640625 204.898438 C 400.023438 205.613281 399.34375 206.269531 398.597656 206.855469 C 397.855469 207.445312 397.0625 207.957031 396.222656 208.394531 C 395.382812 208.832031 394.507812 209.1875 393.597656 209.457031 C 392.6875 209.726562 391.761719 209.910156 390.820312 210.003906 C 389.875 210.101562 388.933594 210.105469 387.988281 210.019531 C 387.042969 210.109375 386.101562 210.105469 385.15625 210.011719 C 384.210938 209.917969 383.285156 209.738281 382.375 209.46875 C 381.46875 209.199219 380.59375 208.84375 379.75 208.40625 C 378.910156 207.972656 378.117188 207.457031 377.371094 206.867188 C 376.628906 206.28125 375.949219 205.625 375.328125 204.90625 C 374.710938 204.1875 374.167969 203.417969 373.695312 202.59375 C 373.226562 201.769531 372.835938 200.910156 372.53125 200.011719 C 372.222656 199.117188 372.003906 198.195312 371.875 197.257812 L 371.875 183.523438 C 371.871094 182.550781 371.777344 181.589844 371.585938 180.640625 C 371.398438 179.6875 371.117188 178.765625 370.742188 177.867188 C 370.371094 176.972656 369.914062 176.121094 369.375 175.3125 C 368.835938 174.507812 368.222656 173.761719 367.535156 173.074219 C 366.851562 172.390625 366.105469 171.777344 365.296875 171.238281 C 364.488281 170.699219 363.636719 170.246094 362.742188 169.875 C 361.84375 169.503906 360.921875 169.222656 359.96875 169.035156 C 359.015625 168.84375 358.054688 168.75 357.085938 168.75 C 356.113281 168.75 355.152344 168.84375 354.203125 169.035156 C 353.25 169.222656 352.328125 169.503906 351.429688 169.875 C 350.535156 170.246094 349.679688 170.699219 348.875 171.238281 C 348.066406 171.777344 347.320312 172.390625 346.632812 173.074219 C 345.949219 173.761719 345.335938 174.507812 344.792969 175.3125 C 344.253906 176.121094 343.800781 176.972656 343.425781 177.867188 C 343.054688 178.765625 342.773438 179.6875 342.585938 180.640625 C 342.394531 181.589844 342.296875 182.550781 342.296875 183.523438 Z M 342.285156 197.335938 " fill-opacity="1" fill-rule="nonzero"/></svg>